<?xml version="1.0" standalone="no"?><!DOCTYPE svg PUBLIC "-//W3C//DTD SVG 1.1//EN" "http://www.w3.org/Graphics/SVG/1.1/DTD/svg11.dtd"><svg t="1654344700028" class="icon" viewBox="0 0 1024 1024" version="1.1" xmlns="http://www.w3.org/2000/svg" p-id="2116" xmlns:xlink="http://www.w3.org/1999/xlink" width="200" height="200"><defs><style type="text/css"></style></defs><path d="M287.986141 351.983061a31.99846 31.99846 0 1 0 0 63.99692h511.975361a31.99846 31.99846 0 1 0 0-63.99692H287.986141zM1014.607172 969.329351l-121.338161-121.338161c-0.41598-0.41598-0.991952-0.575972-1.43993-0.959953a190.870814 190.870814 0 0 0 35.806277-111.38664 191.99076 191.99076 0 1 0-191.990761 191.990761c41.597998 0 79.99615-13.375356 111.418638-35.838276 0.383982 0.447978 0.543974 1.023951 0.959954 1.439931l121.33816 121.338161a31.902465 31.902465 0 0 0 45.213825 0 31.99846 31.99846 0 0 0 0.031998-45.245823z m-278.994573-105.690914c-70.588603 0-127.99384-57.405237-127.993841-127.99384s57.405237-127.99384 127.993841-127.99384 127.99384 57.405237 127.99384 127.99384c0 70.556604-57.405237 127.99384-127.99384 127.99384zM479.976901 511.975361H287.986141a31.99846 31.99846 0 1 0 0 63.99692h191.99076a31.99846 31.99846 0 1 0 0-63.99692zM415.979981 735.964582a31.99846 31.99846 0 1 0 0-63.99692H287.986141a31.99846 31.99846 0 1 0 0 63.99692h127.99384z" p-id="2117" fill="#2c2c2c"></path><path d="M447.978441 863.958422H216.853564C203.158223 863.958422 191.99076 853.846909 191.99076 841.367509V214.485678C191.99076 202.070275 203.158223 191.99076 216.853564 191.99076h654.208516c13.727339 0 24.894802 10.079515 24.894802 22.494918V447.978441a31.99846 31.99846 0 1 0 63.99692 0V214.485678C959.953802 166.807972 920.051723 127.99384 871.06208 127.99384H216.853564C167.863922 127.99384 127.99384 166.807972 127.99384 214.485678v626.881831C127.99384 889.109212 167.863922 927.955342 216.853564 927.955342H447.978441a31.99846 31.99846 0 1 0 0-63.99692z" p-id="2118" fill="#2c2c2c"></path><path d="M607.970741 31.99846a31.99846 31.99846 0 0 0-31.99846-31.99846H95.963382A96.091376 96.091376 0 0 0 0 95.99538v575.972282a31.99846 31.99846 0 1 0 63.99692 0V95.99538a31.99846 31.99846 0 0 1 31.966462-31.99846H575.972281a31.99846 31.99846 0 0 0 31.99846-31.99846z" p-id="2119" fill="#2c2c2c"></path></svg>